{"title":"Insurgent 2015 CAMRip XviD MP3 Idiocracy","uid":11785808,"size":956393472,"categoryP":"video","categoryS":"movies","magnet":"?xt=urn:btih:5f679e1f3b35987c76c55d6dcd8fea94f7a45772&amp;dn=Insurgent+2015+CAMRip+XviD+MP3+Idiocracy&amp;tr=udp%3A%2F%2Ftracker.openbittorrent.com%3A80&amp;tr=udp%3A%2F%2Fopen.demonii.com%3A1337&amp;tr=udp%3A%2F%2Ftracker.coppersurfer.tk%3A6969&amp;tr=udp%3A%2F%2Fexodus.desync.com%3A6969","seeders":11,"leechers":3,"uploader":"Satafakap","files":2,"time":1427747877,"description":"Synopsis / Plot\n\n Beatrice Prior must confront her inner demons and continue her fight against a powerful alliance which threatens to tear her society apart with the help from others on her side.\n\nDirector: Robert Schwentke\nWriters: Brian Duffield (screenplay), Akiva Goldsman (screenplay)\nStars: Shailene Woodley, Ansel Elgort, Theo James  \n &lt;a href=&quot;\nhttp://www.imdb.com/title/tt2908446/&quot; rel=&quot;nofollow&quot; target=&quot;_NEW&quot;&gt;\nhttp://www.imdb.com/title/tt2908446/&lt;/a&gt;\n\nGeneral\n\nComplete name         : Insurgent.2015.CAMRip.XviD.MP3-Idiocracy.avi\nFormat                : AVI\nFormat/Info           : Audio Video Interleave\nFile size             : 884 MiB\nDuration              : 1h 47mn\nOverall bit rate      : 1 146 Kbps\nWriting application   : VirtualDubMod 1.5.10.3 | www.virtualdub-fr.org\nWriting library       : VirtualDubMod build 2550/release\nSource                : Insurgent.2015.READNFO.CAM.AAC.x264-LEGi0N - Thanks!\nSample                : Yes\n\nVideo\n\nID                                       : 0\nFormat                                   : MPEG-4 Visual\nFormat profile                           : Advanced Simple@L5\nFormat settings, BVOP                    : 2\nFormat settings, QPel                    : No\nFormat settings, GMC                     : No warppoints\nFormat settings, Matrix                  : Default (H.263)\nMuxing mode                              : Packed bitstream\nCodec ID                                 : XVID\nCodec ID/Hint                            : XviD\nDuration                                 : 1h 47mn\nBit rate                                 : 1 006 Kbps\nWidth                                    : 640 pixels\nHeight                                   : 272 pixels\nDisplay aspect ratio                     : 2.35:1\nOriginal display aspect ratio            : 2.35:1\nFrame rate                               : 30.000 fps\nColor space                              : YUV\nChroma subsampling                       : 4:2:0\nBit depth                                : 8 bits\nScan type                                : Progressive\nCompression mode                         : Lossy\nBits/(Pixel*Frame)                       : 0.193\nStream size                              : 777 MiB (88%)\nWriting library                          : XviD 64\n\nAudio\n\nID                                       : 1\nFormat                                   : MPEG Audio\nFormat version                           : Version 1\nFormat profile                           : Layer 3\nMode                                     : Joint stereo\nMode extension                           : MS Stereo\nCodec ID                                 : 55\nCodec ID/Hint                            : MP3\nDuration                                 : 1h 47mn\nBit rate mode                            : Constant\nBit rate                                 : 128 Kbps\nChannel(s)                               : 2 channels\nSampling rate                            : 44.1 KHz\nCompression mode                         : Lossy\nStream size                              : 98.6 MiB (11%)\nAlignment                                : Split accross interleaves\nInterleave, duration                     : 33 ms (1.00 video frame)\nInterleave, preload duration             : 501 ms\n\nScreenshots:\n &lt;a href=&quot;\nhttp://i.imgur.com/g87EzHD.jpg&quot; rel=&quot;nofollow&quot; target=&quot;_NEW&quot;&gt;\nhttp://i.imgur.com/g87EzHD.jpg&lt;/a&gt;\n &lt;a href=&quot;\nhttp://i.imgur.com/JURbpYv.jpg&quot; rel=&quot;nofollow&quot; target=&quot;_NEW&quot;&gt;\nhttp://i.imgur.com/JURbpYv.jpg&lt;/a&gt;\n &lt;a href=&quot;\nhttp://i.imgur.com/fwMFFxP.jpg&quot; rel=&quot;nofollow&quot; target=&quot;_NEW&quot;&gt;\nhttp://i.imgur.com/fwMFFxP.jpg&lt;/a&gt;\n &lt;a href=&quot;\nhttp://i.imgur.com/U11adfT.jpg&quot; rel=&quot;nofollow&quot; target=&quot;_NEW&quot;&gt;\nhttp://i.imgur.com/U11adfT.jpg&lt;/a&gt;\n &lt;a href=&quot;\nhttp://i.imgur.com/XrXS0Rs.jpg&quot; rel=&quot;nofollow&quot; target=&quot;_NEW&quot;&gt;\nhttp://i.imgur.com/XrXS0Rs.jpg&lt;/a&gt;","torrent":{"xt":"urn:btih:5f679e1f3b35987c76c55d6dcd8fea94f7a45772","amp;dn":"Insurgent+2015+CAMRip+XviD+MP3+Idiocracy","amp;tr":["udp%3A%2F%2Ftracker.openbittorrent.com%3A80","udp%3A%2F%2Fopen.demonii.com%3A1337","udp%3A%2F%2Ftracker.coppersurfer.tk%3A6969","udp%3A%2F%2Fexodus.desync.com%3A6969"],"infoHash":"5f679e1f3b35987c76c55d6dcd8fea94f7a45772","infoHashBuffer":{"type":"Buffer","data":[95,103,158,31,59,53,152,124,118,197,93,109,205,143,234,148,247,164,87,114]},"announce":[],"urlList":[]}}